<?xml version="1.0" encoding="utf-8"?>
<!-- Generator: Adobe Illustrator 26.5.0, SVG Export Plug-In . SVG Version: 6.00 Build 0)  -->
<svg version="1.1" xmlns="http://www.w3.org/2000/svg" xmlns:xlink="http://www.w3.org/1999/xlink" x="0px" y="0px"
	 viewBox="0 0 622.6 124.8" style="enable-background:new 0 0 622.6 124.8;" xml:space="preserve">
<style type="text/css">
	.st0{fill:#C12033;}
</style>
<g>
	<g>
		<path class="st0" d="M12.05,50.2c-0.56,7.87-1.12,15.75-1.69,23.62c-0.84-0.14-1.69-0.21-2.53-0.21c-0.84,0-1.65,0-2.43,0
			c-0.84,0-1.67,0-2.48,0c-0.81,0-1.63,0.07-2.48,0.21C2.7,61.73,4.71,49.7,6.47,37.75C8.22,25.8,9.84,13.67,11.32,1.37
			c0.77,0.14,1.49,0.26,2.16,0.37c0.67,0.11,1.39,0.16,2.16,0.16c0.63,0,1.3-0.05,2-0.16c0.7-0.11,1.44-0.23,2.21-0.37
			c1.9,4.22,3.88,8.51,5.96,12.87c2.07,4.36,4.15,8.7,6.22,13.02c2.07,4.32,4.15,8.56,6.22,12.71c2.07,4.15,4.06,8.09,5.96,11.81
			c4.22-7.87,8.42-16.12,12.6-24.73C61,18.44,64.99,9.88,68.79,1.37c1.76,0.35,3.27,0.53,4.53,0.53c1.19,0,2.67-0.17,4.43-0.53
			c0.7,6.05,1.46,12.55,2.27,19.51c0.81,6.96,1.6,13.76,2.37,20.41c0.77,6.64,1.55,12.85,2.32,18.61
			c0.77,5.77,1.48,10.41,2.11,13.92c-1.41-0.14-2.83-0.21-4.27-0.21c-1.44,0-2.87,0-4.27,0c-1.41,0-2.85,0-4.32,0
			c-1.48,0-2.95,0.07-4.43,0.21c-0.35-7.24-0.93-15.08-1.74-23.52c-0.81-8.44-1.63-16.8-2.48-25.1H65.1
			c-4.01,8.3-7.95,16.45-11.81,24.47c-3.87,8.01-7.7,16.07-11.49,24.15c-0.35-0.07-0.69-0.12-1-0.16c-0.32-0.04-0.65-0.05-1-0.05
			c-0.35,0-0.69,0.02-1,0.05c-0.32,0.03-0.65,0.09-1,0.16c-3.8-7.87-7.58-15.75-11.34-23.62c-3.76-7.87-7.65-15.85-11.65-23.94
			h-0.21C13.46,34.34,12.62,42.32,12.05,50.2z"/>
		<path class="st0" d="M99.21,23.09c1.93-4.57,4.66-8.58,8.17-12.02c3.51-3.44,7.77-6.15,12.76-8.12C125.13,0.99,130.69,0,136.8,0
			c5.62,0,10.86,0.77,15.71,2.32c4.85,1.55,9.07,3.87,12.65,6.96c3.58,3.09,6.41,7.01,8.49,11.76c2.07,4.75,3.11,10.28,3.11,16.61
			c0,5.27-1,10.19-3.01,14.76c-2,4.57-4.78,8.56-8.33,11.97c-3.55,3.41-7.79,6.06-12.71,7.96c-4.92,1.9-10.33,2.85-16.24,2.85
			c-5.55,0-10.77-0.69-15.66-2.06c-4.89-1.37-9.14-3.59-12.76-6.64c-3.62-3.06-6.49-6.96-8.59-11.71
			c-2.11-4.75-3.16-10.42-3.16-17.03C96.31,32.55,97.28,27.67,99.21,23.09z M157.79,23.15c-1.13-3.62-2.69-6.7-4.69-9.23
			c-2-2.53-4.43-4.48-7.28-5.85c-2.85-1.37-5.96-2.06-9.33-2.06c-3.59,0-6.8,0.86-9.65,2.58c-2.85,1.72-5.26,4.06-7.22,7.01
			c-1.97,2.95-3.46,6.42-4.48,10.39c-1.02,3.97-1.53,8.21-1.53,12.71c0,5.63,0.6,10.37,1.79,14.24c1.19,3.87,2.81,6.98,4.85,9.33
			c2.04,2.36,4.39,4.06,7.07,5.11c2.67,1.05,5.48,1.58,8.44,1.58c3.16,0,6.19-0.67,9.07-2c2.88-1.33,5.39-3.37,7.54-6.12
			c2.14-2.74,3.87-6.22,5.17-10.44c1.3-4.22,1.95-9.21,1.95-14.97C159.48,30.86,158.91,26.77,157.79,23.15z"/>
		<path class="st0" d="M190.59,10.12c-0.14-3.3-0.25-6.22-0.32-8.75c1.97,0.35,3.55,0.53,4.75,0.53c1.19,0,2.78-0.17,4.75-0.53
			c7.66,8.51,15.24,16.87,22.73,25.1c7.49,8.23,15.17,16.59,23.04,25.1v-9.17V32.16c0-3.44-0.02-6.84-0.05-10.18
			c-0.04-3.34-0.07-6.41-0.11-9.23c-0.04-2.81-0.11-5.24-0.21-7.28c-0.11-2.04-0.23-3.41-0.37-4.11c1.97,0.35,3.55,0.53,4.75,0.53
			c1.19,0,2.78-0.17,4.75-0.53c-0.35,6.4-0.63,12.18-0.84,17.35c-0.21,5.17-0.39,10.04-0.53,14.61c-0.14,4.57-0.23,9.09-0.26,13.55
			c-0.04,4.47-0.05,9.23-0.05,14.29v12.65c-1.41-0.14-2.85-0.21-4.32-0.21c-1.55,0-2.92,0.07-4.11,0.21
			c-14.48-16.87-29.84-33.85-46.08-50.93c-0.07,2.04-0.12,4.08-0.16,6.12c-0.04,2.04-0.05,4.11-0.05,6.22v12.23
			c0,4.22,0.02,7.8,0.05,10.76c0.03,2.95,0.09,5.45,0.16,7.49c0.07,2.04,0.14,3.71,0.21,5.01c0.07,1.3,0.14,2.34,0.21,3.11
			c-0.84-0.14-1.69-0.21-2.53-0.21c-0.84,0-1.65,0-2.43,0c-1.62,0-3.23,0.07-4.85,0.21c0.14-0.56,0.32-2.57,0.53-6.01
			c0.21-3.44,0.44-7.65,0.69-12.6c0.25-4.96,0.46-10.33,0.63-16.13c0.17-5.8,0.26-11.37,0.26-16.71
			C190.8,17.51,190.73,13.43,190.59,10.12z"/>
		<path class="st0" d="M284.28,12.97c-0.04-1.69-0.12-2.92-0.26-3.69c-1.05,0-2.36,0.04-3.9,0.11c-1.55,0.07-3.2,0.16-4.96,0.26
			c-1.76,0.11-3.55,0.25-5.38,0.42c-1.83,0.18-3.52,0.37-5.06,0.58c0.14-0.77,0.26-1.55,0.37-2.32c0.11-0.77,0.16-1.55,0.16-2.32
			c0-0.77-0.05-1.55-0.16-2.32c-0.11-0.77-0.23-1.55-0.37-2.32c2.39,0.07,4.55,0.14,6.49,0.21c1.93,0.07,3.9,0.12,5.91,0.16
			c2,0.04,4.18,0.07,6.54,0.11c2.35,0.04,5.18,0.05,8.49,0.05c3.3,0,6.13-0.02,8.49-0.05c2.35-0.03,4.52-0.07,6.49-0.11
			c1.97-0.03,3.88-0.09,5.75-0.16c1.86-0.07,3.88-0.14,6.06-0.21c-0.14,0.77-0.26,1.55-0.37,2.32c-0.11,0.77-0.16,1.55-0.16,2.32
			c0,0.77,0.05,1.55,0.16,2.32c0.11,0.77,0.23,1.55,0.37,2.32c-1.41-0.21-2.99-0.4-4.75-0.58c-1.76-0.17-3.5-0.32-5.22-0.42
			c-1.72-0.11-3.36-0.19-4.9-0.26c-1.55-0.07-2.85-0.11-3.9-0.11c-0.07,0.35-0.12,0.84-0.16,1.48c-0.04,0.63-0.05,1.37-0.05,2.21
			v5.59v26.36c0,5.84,0.07,11.02,0.21,15.55c0.14,4.53,0.35,8.98,0.63,13.34c-1.2-0.14-2.5-0.21-3.9-0.21c-1.41,0-2.99,0-4.75,0
			c-1.76,0-3.34,0-4.75,0c-1.41,0-2.71,0.07-3.9,0.21c0.28-4.36,0.49-8.81,0.63-13.34c0.14-4.53,0.21-9.72,0.21-15.55V18.56
			C284.33,16.52,284.32,14.66,284.28,12.97z"/>
		<path class="st0" d="M386.1,66.38c-0.42,1.51-0.7,3.01-0.84,4.48c-5.7,2.88-12.87,4.32-21.51,4.32c-6.12,0-11.58-0.86-16.4-2.58
			c-4.82-1.72-8.89-4.15-12.23-7.28c-3.34-3.13-5.89-6.84-7.65-11.12c-1.76-4.29-2.64-8.93-2.64-13.92c0-7.31,1.14-13.51,3.43-18.61
			c2.28-5.1,5.34-9.24,9.17-12.44c3.83-3.2,8.28-5.54,13.34-7.01C355.83,0.74,361.14,0,366.69,0c1.83,0,3.76,0.14,5.8,0.42
			c2.04,0.28,4.01,0.65,5.91,1.11c1.9,0.46,3.71,1,5.43,1.63c1.72,0.63,3.18,1.3,4.38,2c-0.7,1.76-1.25,3.53-1.63,5.33
			c-0.39,1.79-0.65,3.6-0.79,5.43h-1.48c-2.67-3.37-5.42-5.78-8.23-7.22c-2.81-1.44-6.12-2.16-9.91-2.16c-2.81,0-5.64,0.63-8.49,1.9
			c-2.85,1.27-5.43,3.2-7.75,5.8c-2.32,2.6-4.2,5.92-5.64,9.97c-1.44,4.04-2.16,8.88-2.16,14.5c0,5.41,0.74,10.04,2.21,13.87
			c1.48,3.83,3.39,6.96,5.75,9.39c2.35,2.43,5.03,4.2,8.01,5.33c2.99,1.13,5.99,1.69,9.02,1.69c1.69,0,3.41-0.19,5.17-0.58
			c1.76-0.39,3.48-0.91,5.17-1.58c1.69-0.67,3.29-1.49,4.8-2.48c1.51-0.98,2.83-2.07,3.95-3.27l1.37,0.84
			C387.01,63.38,386.52,64.87,386.1,66.38z"/>
		<path class="st0" d="M402.76,15.03c-0.14-4.53-0.35-9.09-0.63-13.66c1.19,0.14,2.49,0.26,3.9,0.37c1.41,0.11,2.99,0.16,4.75,0.16
			c1.76,0,3.34-0.05,4.75-0.16c1.41-0.11,2.71-0.23,3.9-0.37c-0.28,4.57-0.49,9.12-0.63,13.66c-0.14,4.53-0.21,9.72-0.21,15.55
			v14.34c0,4.01,0.02,7.87,0.05,11.6c0.04,3.73,0.09,6.96,0.16,9.7c4.01,0,8.01-0.11,12.02-0.32c4.01-0.21,8.05-0.56,12.13-1.05
			c-0.14,0.77-0.25,1.48-0.32,2.11c-0.07,0.63-0.11,1.51-0.11,2.64c0,1.13,0.03,2,0.11,2.64c0.07,0.63,0.17,1.16,0.32,1.58
			c-1.9-0.07-4.24-0.12-7.01-0.16c-2.78-0.04-6.59-0.05-11.44-0.05c-4.29,0-7.77,0-10.44,0c-2.6,0-4.69,0-6.27,0
			c-1.58,0-2.78,0.02-3.59,0.05c-0.81,0.03-1.49,0.09-2.06,0.16c0.28-4.36,0.49-8.81,0.63-13.34c0.14-4.53,0.21-9.72,0.21-15.55
			V30.58C402.97,24.75,402.9,19.56,402.76,15.03z"/>
		<path class="st0" d="M517.17,73.82c-1.69-0.14-3.29-0.21-4.8-0.21c-1.51,0-3.01,0-4.48,0c-1.48,0-2.97,0-4.48,0
			c-1.51,0-3.01,0.07-4.48,0.21c-1.13-3.44-2.29-6.96-3.48-10.55c-1.2-3.59-2.46-7.17-3.8-10.76c-2.25-0.07-4.5-0.12-6.75-0.16
			c-2.25-0.03-4.5-0.05-6.75-0.05c-1.83,0-3.66,0.02-5.48,0.05c-1.83,0.04-3.66,0.09-5.48,0.16c-1.41,3.59-2.71,7.17-3.9,10.76
			c-1.2,3.59-2.29,7.1-3.27,10.55c-0.84-0.14-1.67-0.21-2.48-0.21c-0.81,0-1.63,0-2.48,0c-0.84,0-1.69,0-2.53,0
			c-0.84,0-1.76,0.07-2.74,0.21c0.84-1.83,1.97-4.36,3.37-7.59c1.41-3.23,2.95-6.89,4.64-10.97c1.69-4.08,3.5-8.45,5.43-13.13
			c1.93-4.67,3.87-9.4,5.8-14.18c1.93-4.78,3.83-9.49,5.69-14.13c1.86-4.64,3.57-8.96,5.11-12.97c0.7,0.14,1.37,0.26,2,0.37
			c0.63,0.11,1.3,0.16,2,0.16c0.7,0,1.37-0.05,2-0.16c0.63-0.11,1.3-0.23,2-0.37c2.25,5.98,4.66,12.37,7.22,19.19
			c2.57,6.82,5.15,13.52,7.75,20.09c2.6,6.57,5.13,12.81,7.59,18.72C512.89,64.75,515.13,69.74,517.17,73.82z M479.84,21.2
			c-1.83,4.22-3.55,8.38-5.17,12.5c-1.62,4.11-3.2,8.31-4.75,12.6h19.3c-1.55-4.29-3.08-8.49-4.59-12.6
			C483.13,29.58,481.53,25.41,479.84,21.2z"/>
		<path class="st0" d="M530.36,15.03c-0.14-4.53-0.35-9.09-0.63-13.66c1.19,0.14,2.49,0.26,3.9,0.37c1.41,0.11,2.99,0.16,4.75,0.16
			c1.76,0,3.34-0.05,4.75-0.16c1.41-0.11,2.71-0.23,3.9-0.37c-0.28,4.57-0.49,9.12-0.63,13.66c-0.14,4.53-0.21,9.72-0.21,15.55
			v14.34c0,5.84,0.07,11.02,0.21,15.55c0.14,4.53,0.35,8.98,0.63,13.34c-1.2-0.14-2.5-0.21-3.9-0.21c-1.41,0-2.99,0-4.75,0
			c-1.76,0-3.34,0-4.75,0c-1.41,0-2.71,0.07-3.9,0.21c0.28-4.36,0.49-8.81,0.63-13.34c0.14-4.53,0.21-9.72,0.21-15.55V30.58
			C530.57,24.75,530.49,19.56,530.36,15.03z"/>
		<path class="st0" d="M582.98,40.6v4.32c0,5.84,0.07,11.02,0.21,15.55c0.14,4.53,0.35,8.98,0.63,13.34c-1.2-0.14-2.5-0.21-3.9-0.21
			c-1.41,0-2.99,0-4.75,0c-1.76,0-3.34,0-4.75,0c-1.41,0-2.71,0.07-3.9,0.21c0.28-4.36,0.49-8.81,0.63-13.34
			c0.14-4.53,0.21-9.72,0.21-15.55V30.58c0-5.83-0.07-11.02-0.21-15.55c-0.14-4.53-0.35-9.09-0.63-13.66
			c1.19,0.14,2.49,0.26,3.9,0.37c1.41,0.11,2.99,0.16,4.75,0.16c1.9,0,4.06-0.09,6.49-0.26c2.43-0.17,5.43-0.26,9.02-0.26
			c2.67,0,4.96,0.07,6.85,0.21c1.9,0.14,3.53,0.35,4.9,0.63c1.37,0.28,2.57,0.65,3.59,1.11c1.02,0.46,1.99,1,2.9,1.63
			c2.11,1.55,3.78,3.46,5.01,5.75c1.23,2.29,1.84,5.01,1.84,8.17c0,5.13-1.41,9.32-4.22,12.55c-2.81,3.23-6.85,5.52-12.13,6.85
			c3.37,5.98,6.99,11.93,10.86,17.87c3.87,5.94,7.73,11.83,11.6,17.66c-1.62-0.14-3.2-0.21-4.75-0.21c-1.55,0-3.13,0-4.75,0
			c-1.62,0-3.22,0-4.8,0c-1.58,0-3.18,0.07-4.8,0.21L583.92,40.6H582.98z M598.69,13.81c-0.63-1.83-1.6-3.22-2.9-4.17
			c-1.3-0.95-2.99-1.56-5.06-1.85c-2.07-0.28-4.55-0.42-7.43-0.42c-0.21,9.56-0.32,19.12-0.32,28.68c0.42,0.07,0.83,0.12,1.21,0.16
			c0.39,0.04,0.75,0.05,1.11,0.05c4.64,0,8.19-1.25,10.65-3.74c2.46-2.49,3.69-6.27,3.69-11.34
			C599.64,18.1,599.32,15.64,598.69,13.81z"/>
	</g>
</g>
<g>
	<path class="st0" d="M10.22,95.36c-1.39,0-2.52,0.41-3.39,1.22c-0.87,0.81-1.31,1.76-1.31,2.85c0,1.12,0.34,2.03,1.02,2.74
		c0.68,0.71,1.53,1.35,2.56,1.92c1.02,0.57,2.13,1.12,3.3,1.65c1.18,0.53,2.28,1.18,3.3,1.94c1.02,0.77,1.88,1.7,2.56,2.8
		c0.68,1.1,1.02,2.51,1.02,4.23c0,1.51-0.29,2.89-0.86,4.14c-0.57,1.25-1.39,2.32-2.44,3.21c-1.06,0.89-2.31,1.57-3.78,2.03
		c-1.46,0.47-3.1,0.7-4.91,0.7c-1.63,0-3.08-0.17-4.36-0.52c-1.28-0.35-2.25-0.78-2.92-1.29c0.3-1.06,0.56-2.02,0.77-2.89
		c0.21-0.87,0.39-1.82,0.54-2.85h0.86c0.12,0.66,0.35,1.29,0.68,1.88c0.33,0.59,0.75,1.11,1.27,1.56c0.51,0.45,1.13,0.81,1.85,1.06
		c0.72,0.26,1.54,0.38,2.44,0.38c1.81,0,3.14-0.45,4-1.36c0.86-0.9,1.29-1.99,1.29-3.26c0-1.15-0.33-2.08-0.99-2.8
		c-0.66-0.72-1.49-1.36-2.49-1.92c-0.99-0.56-2.08-1.1-3.26-1.63c-1.18-0.53-2.26-1.17-3.26-1.92c-0.99-0.75-1.82-1.68-2.49-2.78
		c-0.66-1.1-0.99-2.51-0.99-4.23c0-1.57,0.28-2.95,0.84-4.16c0.56-1.21,1.3-2.22,2.24-3.03c0.93-0.81,2.01-1.43,3.23-1.85
		c1.22-0.42,2.51-0.63,3.87-0.63c1.63,0,3.05,0.2,4.27,0.59c1.22,0.39,2.27,0.93,3.14,1.63c-0.27,0.69-0.5,1.36-0.7,2.01
		c-0.2,0.65-0.45,1.47-0.75,2.47h-0.68C14.73,96.66,12.9,95.36,10.22,95.36z"/>
	<path class="st0" d="M46.1,98.12c-0.02-0.72-0.05-1.25-0.11-1.58c-0.45,0-1.01,0.01-1.67,0.04c-0.66,0.03-1.37,0.07-2.13,0.11
		c-0.75,0.05-1.52,0.11-2.31,0.18c-0.78,0.08-1.51,0.16-2.17,0.25c0.06-0.33,0.11-0.66,0.16-1c0.05-0.33,0.07-0.66,0.07-0.99
		c0-0.33-0.02-0.66-0.07-0.99c-0.05-0.33-0.1-0.66-0.16-0.99c1.02,0.03,1.95,0.06,2.78,0.09c0.83,0.03,1.67,0.05,2.53,0.07
		c0.86,0.02,1.79,0.03,2.8,0.05c1.01,0.02,2.22,0.02,3.64,0.02c1.42,0,2.63-0.01,3.64-0.02c1.01-0.01,1.94-0.03,2.78-0.05
		c0.84-0.01,1.67-0.04,2.46-0.07c0.8-0.03,1.67-0.06,2.6-0.09c-0.06,0.33-0.11,0.66-0.16,0.99c-0.05,0.33-0.07,0.66-0.07,0.99
		c0,0.33,0.02,0.66,0.07,0.99c0.05,0.33,0.1,0.66,0.16,1c-0.6-0.09-1.28-0.17-2.03-0.25c-0.75-0.08-1.5-0.14-2.24-0.18
		c-0.74-0.05-1.44-0.08-2.1-0.11c-0.66-0.03-1.22-0.04-1.67-0.04c-0.03,0.15-0.05,0.36-0.07,0.63c-0.02,0.27-0.02,0.59-0.02,0.95
		v2.4v11.3c0,2.5,0.03,4.72,0.09,6.67c0.06,1.94,0.15,3.85,0.27,5.72c-0.51-0.06-1.07-0.09-1.67-0.09c-0.6,0-1.28,0-2.03,0
		c-0.75,0-1.43,0-2.03,0c-0.6,0-1.16,0.03-1.67,0.09c0.12-1.87,0.21-3.78,0.27-5.72c0.06-1.94,0.09-4.17,0.09-6.67v-11.3
		C46.12,99.64,46.11,98.84,46.1,98.12z"/>
	<path class="st0" d="M103.86,124.21c-0.72-0.06-1.41-0.09-2.06-0.09c-0.65,0-1.29,0-1.92,0c-0.63,0-1.27,0-1.92,0
		c-0.65,0-1.29,0.03-1.92,0.09c-0.48-1.48-0.98-2.98-1.49-4.52c-0.51-1.54-1.06-3.07-1.63-4.61c-0.97-0.03-1.93-0.05-2.89-0.07
		c-0.97-0.01-1.93-0.02-2.89-0.02c-0.78,0-1.57,0.01-2.35,0.02c-0.78,0.02-1.57,0.04-2.35,0.07c-0.6,1.54-1.16,3.07-1.67,4.61
		c-0.51,1.54-0.98,3.05-1.4,4.52c-0.36-0.06-0.72-0.09-1.06-0.09c-0.35,0-0.7,0-1.06,0c-0.36,0-0.72,0-1.09,0
		c-0.36,0-0.75,0.03-1.18,0.09c0.36-0.78,0.84-1.87,1.45-3.26c0.6-1.39,1.27-2.95,1.99-4.7c0.72-1.75,1.5-3.62,2.33-5.63
		c0.83-2,1.66-4.03,2.49-6.08c0.83-2.05,1.64-4.07,2.44-6.06c0.8-1.99,1.53-3.84,2.19-5.56c0.3,0.06,0.59,0.11,0.86,0.16
		c0.27,0.04,0.56,0.07,0.86,0.07c0.3,0,0.59-0.02,0.86-0.07c0.27-0.05,0.56-0.1,0.86-0.16c0.96,2.56,2,5.31,3.1,8.23
		c1.1,2.92,2.21,5.8,3.32,8.61c1.12,2.82,2.2,5.49,3.26,8.03C102.03,120.32,102.99,122.46,103.86,124.21z M87.86,101.65
		c-0.78,1.81-1.52,3.6-2.22,5.36c-0.69,1.76-1.37,3.56-2.03,5.4h8.28c-0.66-1.84-1.32-3.64-1.97-5.4
		C89.27,105.24,88.58,103.46,87.86,101.65z"/>
	<path class="st0" d="M126.31,98.12c-0.02-0.72-0.05-1.25-0.11-1.58c-0.45,0-1.01,0.01-1.67,0.04c-0.66,0.03-1.37,0.07-2.13,0.11
		c-0.75,0.05-1.52,0.11-2.31,0.18c-0.78,0.08-1.51,0.16-2.17,0.25c0.06-0.33,0.11-0.66,0.16-1c0.04-0.33,0.07-0.66,0.07-0.99
		c0-0.33-0.02-0.66-0.07-0.99c-0.05-0.33-0.1-0.66-0.16-0.99c1.02,0.03,1.95,0.06,2.78,0.09c0.83,0.03,1.67,0.05,2.53,0.07
		c0.86,0.02,1.79,0.03,2.8,0.05c1.01,0.02,2.22,0.02,3.64,0.02c1.42,0,2.63-0.01,3.64-0.02c1.01-0.01,1.94-0.03,2.78-0.05
		c0.84-0.01,1.67-0.04,2.46-0.07c0.8-0.03,1.67-0.06,2.6-0.09c-0.06,0.33-0.11,0.66-0.16,0.99c-0.04,0.33-0.07,0.66-0.07,0.99
		c0,0.33,0.02,0.66,0.07,0.99c0.05,0.33,0.1,0.66,0.16,1c-0.6-0.09-1.28-0.17-2.03-0.25c-0.75-0.08-1.5-0.14-2.24-0.18
		c-0.74-0.05-1.44-0.08-2.1-0.11c-0.66-0.03-1.22-0.04-1.67-0.04c-0.03,0.15-0.05,0.36-0.07,0.63c-0.02,0.27-0.02,0.59-0.02,0.95
		v2.4v11.3c0,2.5,0.03,4.72,0.09,6.67c0.06,1.94,0.15,3.85,0.27,5.72c-0.51-0.06-1.07-0.09-1.67-0.09c-0.6,0-1.28,0-2.03,0
		c-0.75,0-1.43,0-2.03,0c-0.6,0-1.16,0.03-1.67,0.09c0.12-1.87,0.21-3.78,0.27-5.72c0.06-1.94,0.09-4.17,0.09-6.67v-11.3
		C126.34,99.64,126.33,98.84,126.31,98.12z"/>
	<path class="st0" d="M161.39,99c-0.05-1.94-0.13-3.9-0.24-5.86c1.36,0.03,2.7,0.08,4.02,0.14c1.33,0.06,2.67,0.09,4.02,0.09
		c2.23,0,4.21-0.02,5.95-0.07c1.73-0.04,2.9-0.1,3.5-0.16c-0.12,0.48-0.18,1.12-0.18,1.9c0,0.48,0.01,0.86,0.05,1.13
		c0.03,0.27,0.07,0.57,0.14,0.9c-0.87-0.06-1.83-0.12-2.87-0.18c-1.04-0.06-2.05-0.12-3.03-0.18c-0.98-0.06-1.86-0.11-2.64-0.14
		c-0.78-0.03-1.34-0.04-1.67-0.04c-0.12,1.66-0.19,3.3-0.2,4.93c-0.02,1.63-0.02,3.27-0.02,4.93c1.96-0.03,3.73-0.08,5.31-0.14
		c1.58-0.06,3.23-0.14,4.95-0.23c-0.09,0.51-0.15,0.9-0.18,1.17c-0.03,0.27-0.04,0.56-0.04,0.86c0,0.24,0.02,0.49,0.07,0.75
		c0.04,0.26,0.1,0.63,0.16,1.11c-3.44-0.27-6.86-0.41-10.26-0.41c0,0.96-0.01,1.93-0.02,2.89c-0.02,0.96-0.02,1.93-0.02,2.89
		c0,1.96,0.05,3.84,0.14,5.65c1.72,0,3.44-0.04,5.15-0.14c1.72-0.09,3.45-0.24,5.2-0.45c-0.06,0.33-0.11,0.63-0.14,0.9
		c-0.03,0.27-0.05,0.65-0.05,1.13c0,0.48,0.01,0.86,0.05,1.13c0.03,0.27,0.07,0.5,0.14,0.68c-0.81-0.03-1.82-0.05-3.01-0.07
		c-1.19-0.02-2.83-0.02-4.91-0.02c-1.84,0-3.33,0-4.48,0c-1.12,0-2.01,0-2.69,0c-0.68,0-1.19,0.01-1.54,0.02
		c-0.35,0.01-0.64,0.04-0.88,0.07c0.11-1.87,0.18-3.78,0.24-5.72c0.05-1.94,0.08-4.17,0.08-6.67v-6.15
		C161.47,103.17,161.44,100.95,161.39,99z"/>
	<path class="st0" d="M237.05,124.19c-1.67-0.41-3.13-1.09-4.36-2.04c-1.24-0.95-2.21-2.17-2.92-3.66
		c-0.71-1.49-1.06-3.31-1.06-5.45c0-1.21,0.01-2.28,0.02-3.23c0.01-0.95,0.02-1.83,0.02-2.64c0-0.81,0.01-1.6,0.02-2.35
		c0.01-0.75,0.02-1.54,0.02-2.35c0-2.44-0.02-4.42-0.05-5.92c-0.03-1.51-0.08-2.64-0.14-3.39c0.6,0.06,1.22,0.11,1.85,0.16
		c0.63,0.05,1.25,0.07,1.85,0.07c0.6,0,1.22-0.02,1.85-0.07c0.63-0.04,1.25-0.1,1.85-0.16c-0.3,2.92-0.48,5.65-0.54,8.16
		c-0.06,2.52-0.09,5.07-0.09,7.66c0,2.74,0.2,4.96,0.59,6.65c0.39,1.69,0.97,2.99,1.74,3.91c0.77,0.92,1.71,1.53,2.83,1.83
		c1.11,0.3,2.41,0.45,3.89,0.45c1.81,0,3.23-0.45,4.25-1.36c1.02-0.9,1.8-2.11,2.33-3.62c0.53-1.51,0.85-3.23,0.97-5.18
		c0.12-1.94,0.18-3.97,0.18-6.08c0-2.08-0.03-4.15-0.09-6.22c-0.06-2.06-0.15-4.14-0.27-6.22c0.42,0.06,0.83,0.11,1.22,0.16
		c0.39,0.05,0.75,0.07,1.09,0.07c0.39,0,0.77-0.02,1.13-0.07c0.36-0.04,0.74-0.1,1.13-0.16c-0.06,0.66-0.12,1.55-0.18,2.67
		c-0.06,1.12-0.12,2.4-0.18,3.87c-0.06,1.46-0.11,3.07-0.16,4.84c-0.04,1.76-0.07,3.63-0.07,5.58c0,5.25-1.13,9.01-3.39,11.28
		c-2.26,2.28-5.58,3.41-9.95,3.41C240.53,124.8,238.72,124.59,237.05,124.19z"/>
	<path class="st0" d="M279.99,96.9c-0.06-1.42-0.11-2.67-0.14-3.75c0.84,0.15,1.52,0.23,2.03,0.23c0.51,0,1.19-0.08,2.03-0.23
		c3.29,3.65,6.53,7.24,9.74,10.76c3.21,3.53,6.5,7.11,9.88,10.76v-3.93v-4.39c0-1.48-0.01-2.93-0.02-4.36
		c-0.02-1.43-0.03-2.75-0.05-3.96c-0.02-1.21-0.04-2.25-0.09-3.12c-0.04-0.87-0.1-1.46-0.16-1.76c0.84,0.15,1.52,0.23,2.03,0.23
		c0.51,0,1.19-0.08,2.03-0.23c-0.15,2.74-0.27,5.22-0.36,7.44c-0.09,2.22-0.17,4.3-0.23,6.26c-0.06,1.96-0.1,3.9-0.11,5.81
		c-0.02,1.91-0.02,3.96-0.02,6.13v5.43c-0.6-0.06-1.22-0.09-1.85-0.09c-0.66,0-1.25,0.03-1.76,0.09
		c-6.21-7.24-12.8-14.51-19.76-21.84c-0.03,0.88-0.05,1.75-0.07,2.62c-0.02,0.87-0.02,1.76-0.02,2.67v5.25
		c0,1.81,0.01,3.35,0.02,4.61c0.01,1.27,0.04,2.34,0.07,3.21c0.03,0.87,0.06,1.59,0.09,2.15c0.03,0.56,0.06,1,0.09,1.33
		c-0.36-0.06-0.72-0.09-1.09-0.09c-0.36,0-0.71,0-1.04,0c-0.69,0-1.39,0.03-2.08,0.09c0.06-0.24,0.14-1.1,0.23-2.58
		c0.09-1.48,0.19-3.28,0.29-5.4c0.11-2.13,0.2-4.43,0.27-6.92c0.08-2.49,0.11-4.88,0.11-7.17
		C280.08,100.06,280.05,98.32,279.99,96.9z"/>
	<path class="st0" d="M330.72,99c-0.06-1.94-0.15-3.9-0.27-5.86c0.51,0.06,1.07,0.11,1.67,0.16c0.6,0.05,1.28,0.07,2.04,0.07
		c0.75,0,1.43-0.02,2.03-0.07c0.6-0.04,1.16-0.1,1.67-0.16c-0.12,1.96-0.21,3.91-0.27,5.86c-0.06,1.94-0.09,4.17-0.09,6.67v6.15
		c0,2.5,0.03,4.72,0.09,6.67c0.06,1.94,0.15,3.85,0.27,5.72c-0.51-0.06-1.07-0.09-1.67-0.09s-1.28,0-2.03,0c-0.75,0-1.43,0-2.04,0
		s-1.16,0.03-1.67,0.09c0.12-1.87,0.21-3.78,0.27-5.72c0.06-1.94,0.09-4.17,0.09-6.67v-6.15C330.81,103.17,330.78,100.95,330.72,99z
		"/>
	<path class="st0" d="M379.06,104.29c1.48-3.87,2.8-7.59,3.98-11.15c0.75,0.15,1.42,0.23,1.99,0.23c0.57,0,1.24-0.08,1.99-0.23
		c-0.75,1.78-1.66,3.92-2.71,6.42c-1.06,2.5-2.16,5.15-3.3,7.96c-1.15,2.8-2.28,5.65-3.39,8.55c-1.12,2.89-2.11,5.61-2.98,8.14
		c-0.6-0.06-1.27-0.09-1.99-0.09c-0.72,0-1.39,0.03-1.99,0.09c-0.45-1.21-1-2.67-1.65-4.39c-0.65-1.72-1.34-3.54-2.08-5.47
		c-0.74-1.93-1.51-3.9-2.33-5.92c-0.81-2.02-1.6-3.97-2.35-5.86c-0.75-1.88-1.46-3.64-2.13-5.27c-0.66-1.63-1.24-3.01-1.72-4.16
		c0.69,0.06,1.38,0.11,2.06,0.16c0.68,0.05,1.35,0.07,2.01,0.07c0.66,0,1.33-0.02,1.99-0.07c0.66-0.04,1.33-0.1,1.99-0.16
		c0.51,1.69,1.09,3.47,1.74,5.34c0.65,1.87,1.32,3.78,2.01,5.72c0.69,1.94,1.41,3.9,2.15,5.86c0.74,1.96,1.45,3.89,2.15,5.79
		C376.06,112.02,377.58,108.17,379.06,104.29z"/>
	<path class="st0" d="M406.92,99c-0.05-1.94-0.13-3.9-0.24-5.86c1.36,0.03,2.7,0.08,4.02,0.14c1.33,0.06,2.67,0.09,4.03,0.09
		c2.23,0,4.21-0.02,5.95-0.07c1.73-0.04,2.9-0.1,3.5-0.16c-0.12,0.48-0.18,1.12-0.18,1.9c0,0.48,0.01,0.86,0.04,1.13
		c0.03,0.27,0.08,0.57,0.14,0.9c-0.88-0.06-1.83-0.12-2.87-0.18c-1.04-0.06-2.05-0.12-3.03-0.18c-0.98-0.06-1.86-0.11-2.64-0.14
		c-0.78-0.03-1.34-0.04-1.67-0.04c-0.12,1.66-0.19,3.3-0.2,4.93c-0.02,1.63-0.02,3.27-0.02,4.93c1.96-0.03,3.73-0.08,5.31-0.14
		c1.58-0.06,3.23-0.14,4.95-0.23c-0.09,0.51-0.15,0.9-0.18,1.17c-0.03,0.27-0.05,0.56-0.05,0.86c0,0.24,0.02,0.49,0.07,0.75
		c0.05,0.26,0.1,0.63,0.16,1.11c-3.44-0.27-6.86-0.41-10.26-0.41c0,0.96-0.01,1.93-0.02,2.89c-0.02,0.96-0.02,1.93-0.02,2.89
		c0,1.96,0.05,3.84,0.14,5.65c1.72,0,3.44-0.04,5.16-0.14c1.72-0.09,3.45-0.24,5.2-0.45c-0.06,0.33-0.11,0.63-0.14,0.9
		c-0.03,0.27-0.04,0.65-0.04,1.13c0,0.48,0.01,0.86,0.04,1.13c0.03,0.27,0.08,0.5,0.14,0.68c-0.81-0.03-1.82-0.05-3.01-0.07
		c-1.19-0.02-2.83-0.02-4.91-0.02c-1.84,0-3.33,0-4.48,0c-1.12,0-2.01,0-2.69,0c-0.68,0-1.19,0.01-1.54,0.02
		c-0.35,0.01-0.64,0.04-0.88,0.07c0.11-1.87,0.18-3.78,0.24-5.72s0.08-4.17,0.08-6.67v-6.15C407,103.17,406.97,100.95,406.92,99z"/>
	<path class="st0" d="M452.58,109.97v1.85c0,2.5,0.03,4.72,0.09,6.67c0.06,1.94,0.15,3.85,0.27,5.72c-0.51-0.06-1.07-0.09-1.67-0.09
		s-1.28,0-2.03,0c-0.75,0-1.43,0-2.04,0s-1.16,0.03-1.67,0.09c0.12-1.87,0.21-3.78,0.27-5.72c0.06-1.94,0.09-4.17,0.09-6.67v-6.15
		c0-2.5-0.03-4.72-0.09-6.67c-0.06-1.94-0.15-3.9-0.27-5.86c0.51,0.06,1.07,0.11,1.67,0.16c0.6,0.05,1.28,0.07,2.04,0.07
		c0.81,0,1.74-0.04,2.78-0.11c1.04-0.08,2.33-0.11,3.87-0.11c1.15,0,2.13,0.03,2.94,0.09c0.81,0.06,1.51,0.15,2.1,0.27
		c0.59,0.12,1.1,0.28,1.54,0.48c0.44,0.2,0.85,0.43,1.24,0.7c0.9,0.66,1.62,1.49,2.15,2.46c0.53,0.98,0.79,2.15,0.79,3.5
		c0,2.2-0.6,4-1.81,5.38c-1.21,1.39-2.94,2.37-5.2,2.94c1.45,2.56,3,5.12,4.66,7.67c1.66,2.55,3.32,5.07,4.97,7.57
		c-0.69-0.06-1.37-0.09-2.03-0.09c-0.66,0-1.34,0-2.04,0s-1.38,0-2.06,0c-0.68,0-1.36,0.03-2.06,0.09l-8.09-14.24H452.58z
		 M459.32,98.48c-0.27-0.78-0.69-1.38-1.24-1.79c-0.56-0.41-1.28-0.67-2.17-0.79s-1.95-0.18-3.19-0.18c-0.09,4.1-0.14,8.2-0.14,12.3
		c0.18,0.03,0.35,0.05,0.52,0.07c0.17,0.02,0.32,0.02,0.47,0.02c1.99,0,3.51-0.54,4.57-1.61c1.05-1.07,1.58-2.69,1.58-4.86
		C459.72,100.32,459.59,99.26,459.32,98.48z"/>
	<path class="st0" d="M497.16,95.36c-1.39,0-2.52,0.41-3.39,1.22c-0.87,0.81-1.31,1.76-1.31,2.85c0,1.12,0.34,2.03,1.02,2.74
		c0.68,0.71,1.53,1.35,2.55,1.92c1.02,0.57,2.13,1.12,3.3,1.65c1.18,0.53,2.28,1.18,3.3,1.94c1.02,0.77,1.88,1.7,2.55,2.8
		c0.68,1.1,1.02,2.51,1.02,4.23c0,1.51-0.29,2.89-0.86,4.14c-0.57,1.25-1.39,2.32-2.44,3.21c-1.06,0.89-2.31,1.57-3.78,2.03
		c-1.46,0.47-3.1,0.7-4.91,0.7c-1.63,0-3.08-0.17-4.36-0.52c-1.28-0.35-2.25-0.78-2.92-1.29c0.3-1.06,0.56-2.02,0.77-2.89
		c0.21-0.87,0.39-1.82,0.54-2.85h0.86c0.12,0.66,0.35,1.29,0.68,1.88c0.33,0.59,0.75,1.11,1.27,1.56c0.51,0.45,1.13,0.81,1.85,1.06
		c0.72,0.26,1.54,0.38,2.44,0.38c1.81,0,3.14-0.45,4-1.36c0.86-0.9,1.29-1.99,1.29-3.26c0-1.15-0.33-2.08-0.99-2.8
		c-0.66-0.72-1.49-1.36-2.49-1.92c-0.99-0.56-2.08-1.1-3.26-1.63c-1.18-0.53-2.26-1.17-3.26-1.92c-0.99-0.75-1.82-1.68-2.49-2.78
		c-0.66-1.1-0.99-2.51-0.99-4.23c0-1.57,0.28-2.95,0.84-4.16c0.56-1.21,1.3-2.22,2.24-3.03c0.93-0.81,2.01-1.43,3.23-1.85
		c1.22-0.42,2.51-0.63,3.87-0.63c1.63,0,3.05,0.2,4.27,0.59c1.22,0.39,2.27,0.93,3.14,1.63c-0.27,0.69-0.5,1.36-0.7,2.01
		c-0.2,0.65-0.45,1.47-0.75,2.47h-0.68C501.67,96.66,499.85,95.36,497.16,95.36z"/>
	<path class="st0" d="M527.82,99c-0.06-1.94-0.15-3.9-0.27-5.86c0.51,0.06,1.07,0.11,1.67,0.16c0.6,0.05,1.28,0.07,2.04,0.07
		c0.75,0,1.43-0.02,2.03-0.07c0.6-0.04,1.16-0.1,1.67-0.16c-0.12,1.96-0.21,3.91-0.27,5.86c-0.06,1.94-0.09,4.17-0.09,6.67v6.15
		c0,2.5,0.03,4.72,0.09,6.67c0.06,1.94,0.15,3.85,0.27,5.72c-0.51-0.06-1.07-0.09-1.67-0.09c-0.6,0-1.28,0-2.03,0
		c-0.75,0-1.43,0-2.04,0c-0.6,0-1.16,0.03-1.67,0.09c0.12-1.87,0.21-3.78,0.27-5.72c0.06-1.94,0.09-4.17,0.09-6.67v-6.15
		C527.91,103.17,527.88,100.95,527.82,99z"/>
	<path class="st0" d="M563.93,98.12c-0.02-0.72-0.05-1.25-0.11-1.58c-0.45,0-1.01,0.01-1.67,0.04c-0.66,0.03-1.37,0.07-2.13,0.11
		c-0.75,0.05-1.52,0.11-2.31,0.18c-0.78,0.08-1.51,0.16-2.17,0.25c0.06-0.33,0.11-0.66,0.16-1c0.05-0.33,0.07-0.66,0.07-0.99
		c0-0.33-0.02-0.66-0.07-0.99c-0.04-0.33-0.1-0.66-0.16-0.99c1.02,0.03,1.95,0.06,2.78,0.09c0.83,0.03,1.67,0.05,2.53,0.07
		c0.86,0.02,1.79,0.03,2.8,0.05c1.01,0.02,2.22,0.02,3.64,0.02s2.63-0.01,3.64-0.02c1.01-0.01,1.94-0.03,2.78-0.05
		c0.84-0.01,1.67-0.04,2.46-0.07c0.8-0.03,1.67-0.06,2.6-0.09c-0.06,0.33-0.11,0.66-0.16,0.99c-0.05,0.33-0.07,0.66-0.07,0.99
		c0,0.33,0.02,0.66,0.07,0.99c0.04,0.33,0.1,0.66,0.16,1c-0.6-0.09-1.28-0.17-2.04-0.25c-0.75-0.08-1.5-0.14-2.24-0.18
		c-0.74-0.05-1.44-0.08-2.1-0.11c-0.66-0.03-1.22-0.04-1.67-0.04c-0.03,0.15-0.05,0.36-0.07,0.63c-0.02,0.27-0.02,0.59-0.02,0.95
		v2.4v11.3c0,2.5,0.03,4.72,0.09,6.67c0.06,1.94,0.15,3.85,0.27,5.72c-0.51-0.06-1.07-0.09-1.67-0.09c-0.6,0-1.28,0-2.04,0
		c-0.75,0-1.43,0-2.03,0c-0.6,0-1.16,0.03-1.67,0.09c0.12-1.87,0.21-3.78,0.27-5.72s0.09-4.17,0.09-6.67v-11.3
		C563.95,99.64,563.94,98.84,563.93,98.12z"/>
	<path class="st0" d="M613.33,103.75c0.6-1.1,1.19-2.25,1.76-3.46c0.57-1.21,1.13-2.42,1.67-3.64c0.54-1.22,1.07-2.39,1.58-3.5
		c0.33,0.06,0.67,0.11,1.02,0.16c0.35,0.05,0.7,0.07,1.06,0.07c0.36,0,0.72-0.02,1.06-0.07c0.35-0.04,0.72-0.1,1.11-0.16
		c-0.51,0.84-1.15,1.95-1.92,3.32c-0.77,1.37-1.59,2.86-2.46,4.45c-0.87,1.6-1.76,3.23-2.64,4.91c-0.89,1.67-1.7,3.22-2.42,4.63
		c0,0.72-0.02,1.45-0.05,2.19c-0.03,0.74-0.04,1.49-0.04,2.24c0,1.54,0.02,3.06,0.07,4.57c0.05,1.51,0.17,3.09,0.38,4.75
		c-0.63-0.06-1.27-0.09-1.92-0.09c-0.65,0-1.29,0-1.92,0s-1.27,0-1.92,0s-1.29,0.03-1.92,0.09c0.06-1.39,0.16-2.8,0.32-4.25
		c0.15-1.45,0.23-2.89,0.23-4.34c0-0.69-0.01-1.39-0.02-2.1c-0.01-0.71-0.04-1.41-0.07-2.1c-0.75-1.51-1.62-3.19-2.6-5.04
		c-0.98-1.85-1.93-3.65-2.85-5.4c-0.92-1.75-1.76-3.33-2.53-4.75c-0.77-1.42-1.33-2.44-1.7-3.07c0.69,0.06,1.37,0.11,2.03,0.16
		c0.66,0.05,1.34,0.07,2.04,0.07c0.69,0,1.36-0.02,2.01-0.07c0.65-0.04,1.32-0.1,2.01-0.16c0.51,1.12,1.09,2.35,1.74,3.71
		c0.65,1.36,1.29,2.68,1.92,3.98c0.63,1.3,1.22,2.47,1.76,3.53c0.54,1.06,0.98,1.84,1.31,2.35h0.09
		C612.12,105.84,612.72,104.85,613.33,103.75z"/>
</g>
</svg>
